<svg width="16" height="18" viewBox="0 0 16 18" fill="none" xmlns="http://www.w3.org/2000/svg">
<path d="M12.8458 2.72499C12.7791 2.72499 12.7124 2.70832 12.6541 2.67499C11.0541 1.84999 9.67076 1.49999 8.01243 1.49999C6.36243 1.49999 4.79576 1.89166 3.37076 2.67499C3.17076 2.78332 2.92076 2.70832 2.8041 2.50832C2.69576 2.30832 2.77076 2.04999 2.97076 1.94166C4.52076 1.09999 6.22076 0.666656 8.01243 0.666656C9.78743 0.666656 11.3374 1.05832 13.0374 1.93332C13.2458 2.04166 13.3208 2.29166 13.2124 2.49166C13.1374 2.64166 12.9958 2.72499 12.8458 2.72499ZM0.920764 7.09999C0.837431 7.09999 0.754097 7.07499 0.679097 7.02499C0.487431 6.89166 0.445764 6.63332 0.579097 6.44166C1.4041 5.27499 2.4541 4.35832 3.7041 3.71666C6.32076 2.36666 9.67076 2.35832 12.2958 3.70832C13.5458 4.34999 14.5958 5.25832 15.4208 6.41666C15.5541 6.59999 15.5124 6.86666 15.3208 6.99999C15.1291 7.13332 14.8708 7.09166 14.7374 6.89999C13.9874 5.84999 13.0374 5.02499 11.9124 4.44999C9.52076 3.22499 6.46243 3.22499 4.0791 4.45832C2.94576 5.04166 1.99576 5.87499 1.24576 6.92499C1.1791 7.04166 1.0541 7.09999 0.920764 7.09999ZM6.1291 17.1583C6.02076 17.1583 5.91243 17.1167 5.83743 17.0333C5.11243 16.3083 4.72076 15.8417 4.16243 14.8333C3.58743 13.8083 3.28743 12.5583 3.28743 11.2167C3.28743 8.74166 5.4041 6.72499 8.0041 6.72499C10.6041 6.72499 12.7208 8.74166 12.7208 11.2167C12.7208 11.45 12.5374 11.6333 12.3041 11.6333C12.0708 11.6333 11.8874 11.45 11.8874 11.2167C11.8874 9.19999 10.1458 7.55832 8.0041 7.55832C5.86243 7.55832 4.12076 9.19999 4.12076 11.2167C4.12076 12.4167 4.38743 13.525 4.89576 14.425C5.4291 15.3833 5.79576 15.7917 6.43743 16.4417C6.59576 16.6083 6.59576 16.8667 6.43743 17.0333C6.34576 17.1167 6.23743 17.1583 6.1291 17.1583ZM12.1041 15.6167C11.1124 15.6167 10.2374 15.3667 9.52076 14.875C8.2791 14.0333 7.53743 12.6667 7.53743 11.2167C7.53743 10.9833 7.72076 10.8 7.9541 10.8C8.18743 10.8 8.37076 10.9833 8.37076 11.2167C8.37076 12.3917 8.97076 13.5 9.98743 14.1833C10.5791 14.5833 11.2708 14.775 12.1041 14.775C12.3041 14.775 12.6374 14.75 12.9708 14.6917C13.1958 14.65 13.4124 14.8 13.4541 15.0333C13.4958 15.2583 13.3458 15.475 13.1124 15.5167C12.6374 15.6083 12.2208 15.6167 12.1041 15.6167ZM10.4291 17.3333C10.3958 17.3333 10.3541 17.325 10.3208 17.3167C8.99576 16.95 8.1291 16.4583 7.22076 15.5667C6.0541 14.4083 5.41243 12.8667 5.41243 11.2167C5.41243 9.86666 6.56243 8.76666 7.9791 8.76666C9.39576 8.76666 10.5458 9.86666 10.5458 11.2167C10.5458 12.1083 11.3208 12.8333 12.2791 12.8333C13.2374 12.8333 14.0124 12.1083 14.0124 11.2167C14.0124 8.07499 11.3041 5.52499 7.97076 5.52499C5.6041 5.52499 3.43743 6.84166 2.46243 8.88332C2.13743 9.55832 1.97076 10.35 1.97076 11.2167C1.97076 11.8667 2.0291 12.8917 2.5291 14.225C2.61243 14.4417 2.5041 14.6833 2.28743 14.7583C2.07076 14.8417 1.8291 14.725 1.7541 14.5167C1.34576 13.425 1.14576 12.3417 1.14576 11.2167C1.14576 10.2167 1.33743 9.30832 1.71243 8.51666C2.82076 6.19166 5.2791 4.68332 7.97076 4.68332C11.7624 4.68332 14.8458 7.60832 14.8458 11.2083C14.8458 12.5583 13.6958 13.6583 12.2791 13.6583C10.8624 13.6583 9.71243 12.5583 9.71243 11.2083C9.71243 10.3167 8.93743 9.59166 7.9791 9.59166C7.02076 9.59166 6.24576 10.3167 6.24576 11.2083C6.24576 12.6333 6.79576 13.9667 7.8041 14.9667C8.59576 15.75 9.3541 16.1833 10.5291 16.5083C10.7541 16.5667 10.8791 16.8 10.8208 17.0167C10.7791 17.2083 10.6041 17.3333 10.4291 17.3333Z" fill="#1B1B1F"/>
</svg>
