<svg width="18" height="18" viewBox="0 0 18 18" fill="none" xmlns="http://www.w3.org/2000/svg">
<path d="M8.99984 0.666664C4.39984 0.666664 0.666504 4.4 0.666504 9C0.666504 13.6 4.39984 17.3333 8.99984 17.3333C13.5998 17.3333 17.3332 13.6 17.3332 9C17.3332 4.4 13.5998 0.666664 8.99984 0.666664ZM8.99984 15.6667C5.32484 15.6667 2.33317 12.675 2.33317 9C2.33317 5.325 5.32484 2.33333 8.99984 2.33333C12.6748 2.33333 15.6665 5.325 15.6665 9C15.6665 12.675 12.6748 15.6667 8.99984 15.6667ZM9.25817 8.28333C7.78317 7.90833 7.30817 7.5 7.30817 6.89166C7.30817 6.19166 7.9665 5.7 9.05817 5.7C10.2082 5.7 10.6415 6.25 10.6748 7.06666H12.0998C12.0582 5.95 11.3748 4.925 10.0248 4.59166V3.16666H8.08317V4.575C6.82484 4.84166 5.8165 5.65833 5.8165 6.91666C5.8165 8.40833 7.05817 9.15833 8.8665 9.59166C10.4915 9.975 10.8165 10.55 10.8165 11.15C10.8165 11.5917 10.4915 12.3083 9.0665 12.3083C7.73317 12.3083 7.20817 11.7083 7.13317 10.9417H5.69984C5.78317 12.3583 6.83317 13.1583 8.08317 13.4167V14.8333H10.0332V13.4417C11.2998 13.2 12.2998 12.475 12.3082 11.1333C12.2998 9.3 10.7248 8.66666 9.25817 8.28333Z" fill="#1B1B1F"/>
</svg>
