<svg width="14" height="16" viewBox="0 0 14 16" fill="none" xmlns="http://www.w3.org/2000/svg">
<path d="M10.1834 4.01667L9.35004 4.35C9.17504 4.21667 8.9917 4.10833 8.7917 4.025L8.6667 3.14167C8.65004 3.05833 8.58337 3 8.50004 3H7.1667C7.08337 3 7.0167 3.05833 7.00837 3.14167L6.88337 4.025C6.68337 4.10833 6.4917 4.21667 6.32504 4.35L5.4917 4.01667C5.4167 3.99167 5.32504 4.01667 5.2917 4.09167L4.62504 5.24167C4.58337 5.31667 4.60004 5.40833 4.6667 5.45833L5.37504 6.00833C5.35004 6.10833 5.33337 6.225 5.33337 6.33333C5.33337 6.44167 5.3417 6.55 5.35837 6.65833L4.65837 7.20833C4.5917 7.25833 4.57504 7.35 4.6167 7.41667L5.28337 8.575C5.32504 8.65 5.40837 8.675 5.4917 8.65L6.3167 8.31667C6.4917 8.45 6.67504 8.55833 6.88337 8.64167L7.00004 9.525C7.0167 9.60833 7.08337 9.66667 7.1667 9.66667H8.50004C8.58337 9.66667 8.65004 9.60833 8.6667 9.525L8.7917 8.64167C8.9917 8.55833 9.18337 8.45 9.35004 8.31667L10.175 8.65C10.25 8.68333 10.3417 8.65 10.375 8.575L11.0417 7.41667C11.0834 7.34167 11.0667 7.25833 11 7.20833L10.3084 6.65833C10.325 6.55 10.3334 6.44167 10.3334 6.33333C10.3334 6.21667 10.325 6.10833 10.3084 6.00833L11.0167 5.45833C11.0834 5.40833 11.1 5.31667 11.0584 5.24167L10.3917 4.09167C10.35 4.01667 10.2584 3.99167 10.1834 4.01667ZM7.83337 7.525C7.17504 7.525 6.6417 6.99167 6.6417 6.33333C6.6417 5.675 7.17504 5.14167 7.83337 5.14167C8.4917 5.14167 9.02504 5.675 9.02504 6.33333C9.02504 6.99167 8.4917 7.525 7.83337 7.525Z" fill="#1B1B1F"/>
<path d="M13.6167 5.55C13.2584 2.825 10.925 0.666667 8.17504 0.508333C8.05837 0.5 7.95004 0.5 7.83337 0.5C4.8917 0.5 2.47504 2.675 2.0667 5.5L0.458369 8.4C0.116702 8.95 0.516702 9.66667 1.1667 9.66667H2.00004V11.3333C2.00004 12.25 2.75004 13 3.6667 13H4.50004V15.5H10.3334V11.6C12.5167 10.5583 13.9584 8.2 13.6167 5.55ZM9.40837 10.1917L8.6667 10.5417V13.8333H6.1667V11.3333H3.6667V8H2.58337L3.6917 6.05833C3.8417 3.88333 5.62504 2.16667 7.83337 2.16667C10.1334 2.16667 12 4.03333 12 6.33333C12 8.075 10.925 9.56667 9.40837 10.1917Z" fill="#1B1B1F"/>
</svg>
