<svg width="16" height="20" viewBox="0 0 16 20" fill="none" xmlns="http://www.w3.org/2000/svg">
<path d="M8 0.833344L0.5 4.16668V9.16668C0.5 13.7917 3.7 18.1167 8 19.1667C12.3 18.1167 15.5 13.7917 15.5 9.16668V4.16668L8 0.833344ZM13.8333 9.16668C13.8333 10.7083 13.4083 12.2083 12.6833 13.5083L11.475 12.3C12.55 10.6833 12.3667 8.48334 10.9417 7.05834C9.31667 5.43334 6.675 5.43334 5.05 7.05834C3.425 8.68334 3.425 11.325 5.05 12.95C6.475 14.375 8.675 14.55 10.2917 13.4833L11.725 14.9167C10.7333 16.1 9.45 17.0083 8 17.45C4.65 16.4083 2.16667 12.9333 2.16667 9.16668V5.25001L8 2.65834L13.8333 5.25001V9.16668ZM8 12.5C6.61667 12.5 5.5 11.3833 5.5 10C5.5 8.61668 6.61667 7.50001 8 7.50001C9.38333 7.50001 10.5 8.61668 10.5 10C10.5 11.3833 9.38333 12.5 8 12.5Z" fill="#1B1B1F"/>
</svg>
